<?xml version="1.0" encoding="UTF-8" standalone="no"?>
<!-- Created with Inkscape (http://www.inkscape.org/) -->

<svg
   width="210mm"
   height="210mm"
   viewBox="0 0 210 210"
   version="1.1"
   id="svg5"
   inkscape:version="1.1.2 (0a00cf5339, 2022-02-04)"
   sodipodi:docname="Zeichnung.svg"
   xmlns:inkscape="http://www.inkscape.org/namespaces/inkscape"
   xmlns:sodipodi="http://sodipodi.sourceforge.net/DTD/sodipodi-0.dtd"
   xmlns="http://www.w3.org/2000/svg"
   xmlns:svg="http://www.w3.org/2000/svg">
  <sodipodi:namedview
     id="namedview7"
     pagecolor="#ffffff"
     bordercolor="#666666"
     borderopacity="1.0"
     inkscape:pageshadow="2"
     inkscape:pageopacity="0.0"
     inkscape:pagecheckerboard="0"
     inkscape:document-units="mm"
     showgrid="false"
     inkscape:zoom="0.42621315"
     inkscape:cx="773.08736"
     inkscape:cy="585.38785"
     inkscape:window-width="1600"
     inkscape:window-height="834"
     inkscape:window-x="0"
     inkscape:window-y="29"
     inkscape:window-maximized="1"
     inkscape:current-layer="layer1"
     height="210mm" />
  <defs
     id="defs2" />
  <g
     inkscape:label="Ebene 1"
     inkscape:groupmode="layer"
     id="layer1">
    <path
       style="fill:#000000;fill-opacity:1;fill-rule:nonzero;stroke:none;stroke-width:0.264583"
       id="path109"
       d="m 62.058287,62.683654 c 1.684848,1.569281 3.179308,3.297737 4.469204,5.201486 2.528314,4.208544 3.472238,9.026863 4.259861,13.80405 0.308356,2.849629 0.716531,5.874301 -0.05045,8.696987 -0.41058,1.511043 -0.870299,2.245733 -1.572199,3.639605 -1.819616,3.136435 -3.895304,6.149748 -6.239782,8.920238 -0.654021,0.77287 -1.306193,1.55235 -2.037064,2.25299 -0.738463,0.7079 -1.573213,1.30798 -2.359819,1.96198 -0.832363,0.52407 -1.577652,1.22277 -2.49709,1.57223 -0.265179,0.10078 0.654045,-0.726 0.373044,-0.76494 -1.063262,-0.14736 -2.12557,0.40386 -3.198561,0.37335 -2.186093,-0.0621 -4.923726,-0.84044 -6.842162,-1.86965 -1.113158,-0.5972 -2.074974,-1.44137 -3.11246,-2.16205 -3.86551,-3.69402 -6.542397,-7.930716 -7.469127,-13.265121 -0.573394,-3.300529 -0.374446,-5.318567 -0.309266,-8.641291 0.349943,-4.065289 1.14971,-8.09634 2.470544,-11.960924 0.680397,-1.990746 1.299186,-3.496852 2.553174,-5.170569 0.45888,-0.612479 1.040773,-1.122318 1.56116,-1.683475 0.699011,-0.398137 1.301922,-1.072227 2.097032,-1.194411 0.329637,-0.05066 -0.703064,0.897919 -0.371028,0.929171 1.226773,0.115478 2.421671,-0.46578 3.64404,-0.621085 1.31956,-0.167653 2.646847,-0.281276 3.975391,-0.346985 3.961366,-0.195927 4.962462,-0.03319 8.966965,0.187359 4.226391,0.410223 8.584988,0.883703 12.43834,2.839792 1.233668,0.626252 2.387333,1.413827 3.478205,2.264783 2.944545,2.296945 3.186829,3.07871 5.366657,6.082458 2.553774,4.714854 4.450382,9.887318 4.34775,15.328966 -0.06472,3.431813 -0.624621,5.19308 -1.355363,8.528987 -0.516263,1.440878 -0.905338,2.933885 -1.548788,4.322635 -2.120154,4.57588 -5.371143,8.5851 -9.210128,11.82301 -3.620068,3.05328 -5.910355,4.25421 -9.977757,6.77331 -4.418611,2.32803 -8.957892,4.39406 -13.705128,5.96315 -2.926268,0.96721 -5.956284,1.81497 -9.053505,2.01253 -1.212694,0.0773 -2.428711,-0.0883 -3.643066,-0.13245 -1.033748,-0.28913 -2.101167,-0.47743 -3.101247,-0.8674 -3.202329,-1.2487 -6.337589,-4.12005 -7.606552,-7.35755 -0.359946,-0.91833 -0.493218,-1.91005 -0.739827,-2.86508 -0.01057,-1.23559 -0.163299,-2.47816 -0.03173,-3.70677 0.502742,-4.69453 2.379998,-9.69537 5.405566,-13.34356 2.977283,-3.589976 5.661255,-5.206532 9.387589,-7.953079 0.998786,-0.539827 1.969907,-1.134308 2.996353,-1.61948 7.494371,-3.542385 15.357398,-6.340287 23.575587,-7.605919 1.628793,-0.250841 3.276663,-0.356407 4.914995,-0.534612 5.938467,-0.478316 11.735096,0.300435 17.132678,2.896733 0.827349,0.397965 1.60977,0.883274 2.414654,1.324911 2.346782,1.597959 4.436983,3.426233 5.828088,5.94763 1.957416,3.547845 2.779975,7.471106 3.643125,11.379396 1.5657,9.36445 1.12012,18.88279 0.16052,28.28001 -1.1028,8.72606 -4.827657,16.75876 -8.271947,24.75355 -0.87643,2.3557 -2.102501,4.5692 -2.998033,6.91721 -0.603335,1.58188 -1.925262,4.59648 0.100801,5.86035 0.731509,0.45632 1.64766,0.50848 2.471491,0.76272 3.585131,-0.0886 5.261205,0.0496 8.909168,-0.88653 5.28588,-1.35641 9.11831,-3.22453 13.99328,-5.8651 10.42141,-5.64487 10.36921,-5.94201 19.59626,-12.28182 8.30528,-6.27867 16.27998,-13.05704 23.5658,-20.50675 1.87912,-1.92138 3.75028,-3.86231 5.4267,-5.96288 3.94676,-4.94534 4.41444,-6.55839 7.17261,-12.05109 0.64117,-2.10733 1.46449,-4.16765 1.9235,-6.32201 0.46025,-2.1602 0.68705,-4.37018 0.82425,-6.57461 0.39412,-6.332567 -0.41839,-12.776007 -3.15488,-18.562479 -0.93391,-1.974803 -2.24603,-3.747455 -3.36905,-5.621184 -1.34352,-1.620383 -2.54718,-3.367733 -4.03056,-4.861145 -5.836,-5.875491 -13.621,-9.391658 -21.58649,-11.282304 -1.66911,-0.396171 -3.37779,-0.601734 -5.06668,-0.902599 -3.99473,-0.302477 -8.15041,-0.629375 -12.07377,0.470132 -3.03808,0.851411 -6.93631,3.235317 -9.21003,4.813523 -0.99199,0.688546 -1.77208,1.640821 -2.65812,2.46123 -4.01418,4.832387 -7.59229,10.228739 -9.95054,16.079867 -1.73457,4.303705 -2.37312,7.227771 -3.574985,11.703944 -0.352295,2.024751 -0.818864,4.032912 -1.056886,6.074255 -0.540932,4.63917 -0.450037,7.91954 -0.01198,12.57404 0.403505,4.2874 0.993822,7.84094 2.217561,11.96966 0.55641,1.87726 1.31407,3.68889 1.9711,5.53334 3.02758,7.28505 7.10861,14.08685 11.87095,20.36606 1.23062,1.62259 2.47455,3.24008 3.83115,4.75891 1.34042,1.50072 2.83277,2.85848 4.24916,4.28772 5.78473,4.93145 12.24505,9.09016 19.41362,11.70529 4.09384,1.49345 5.21982,1.55916 9.37058,2.38243 1.46812,0.0244 2.95353,0.29905 4.40437,0.0731 4.82651,-0.75158 10.23186,-4.17619 13.49235,-7.23852 2.8224,-2.65085 4.80003,-6.07711 7.20004,-9.11567 0,0 -2.58174,1.10089 -2.58174,1.10089 v 0 c -2.56114,3.07496 -5.00376,6.25265 -7.68343,9.22489 -0.81391,0.90278 -1.69324,1.80814 -2.77074,2.3707 -3.8909,2.03141 -5.08461,1.56963 -9.16178,1.56096 -4.19689,-0.77518 -5.25283,-0.80573 -9.39286,-2.27946 -7.15826,-2.54812 -13.6302,-6.65478 -19.39801,-11.55583 -1.41272,-1.41797 -2.89969,-2.76564 -4.23816,-4.2539 -1.35798,-1.50995 -2.61387,-3.11092 -3.84081,-4.72917 -4.74263,-6.25521 -8.69014,-13.09695 -11.78263,-20.30902 -0.65537,-1.83153 -1.41086,-3.63027 -1.96611,-5.4946 -2.26814,-7.61573 -3.10158,-16.52286 -2.15638,-24.413073 0.24344,-2.032085 0.71258,-4.030723 1.06887,-6.046086 1.29671,-4.759812 1.77397,-7.121718 3.67571,-11.681667 2.43074,-5.828371 6.0381,-11.269411 10.16557,-16.023425 0.90265,-0.802759 1.84513,-1.562862 2.70796,-2.40828 0.0674,-0.066 -0.36729,0.06921 -0.28127,0.03056 1.04549,-0.469662 2.07386,-0.998135 3.17125,-1.328828 3.92405,-1.182486 8.11073,-0.918501 12.13088,-0.667046 4.68736,0.773033 5.96242,0.792327 10.59206,2.381097 5.97224,2.049515 11.52358,5.039799 16.02585,9.538623 1.47769,1.476563 2.68263,3.202916 4.02395,4.804375 1.10751,1.856934 2.40347,3.613735 3.32254,5.5708 3.50129,7.455694 3.99218,16.96021 2.25316,24.93731 -0.46576,2.1365 -1.29194,4.17817 -1.93791,6.26725 -2.76108,5.50759 -3.14247,6.94548 -7.08632,11.91721 -1.64207,2.07003 -3.466,3.99256 -5.3052,5.88959 -7.22305,7.4502 -15.16308,14.202 -23.46552,20.41229 -2.95096,2.00787 -5.84885,4.09602 -8.85287,6.0236 -1.80573,1.15867 -3.67075,2.22704 -5.56763,3.22955 -4.97929,2.63157 -8.3184,4.35709 -13.64584,5.72078 -3.50255,0.89655 -5.183644,0.77692 -8.616065,0.87241 -1.171932,-0.3113 -2.793656,-0.25817 -3.202787,-1.77844 -0.158451,-0.58878 0.0048,-1.22721 0.125535,-1.82488 0.661572,-3.27615 2.535348,-6.16788 3.617407,-9.29275 3.442485,-8.03207 7.23699,-16.07973 8.24614,-24.86247 0.8749,-9.43679 1.33289,-18.97949 -0.20844,-28.37996 -0.84839,-3.952916 -1.66773,-7.95776 -3.59274,-11.567913 C 99.482197,88.192656 97.356717,86.337041 94.970392,84.685739 94.15493,84.23531 93.363019,83.73933 92.52401,83.334451 87.015321,80.67614 81.174126,79.917069 75.114472,80.410033 c -4.720606,0.51662 -5.665843,0.479822 -10.429433,1.608206 -4.086128,0.967909 -8.059259,2.243407 -11.964213,3.787344 -2.135581,0.844365 -4.275272,1.697212 -6.319424,2.743679 -2.970414,1.520653 -5.80226,3.297989 -8.703392,4.946983 -3.770657,2.814923 -6.430793,4.432308 -9.433809,8.106545 -2.378328,2.90993 -3.514278,5.55119 -4.525517,9.10267 -0.418878,1.47111 -0.765505,2.97227 -0.935403,4.49238 -0.141498,1.266 0.0041,2.54776 0.0062,3.82165 0.251089,0.98979 0.381991,2.01812 0.753268,2.96939 0.321917,0.82479 0.806878,1.58186 1.30798,2.3118 1.612276,2.34855 3.844976,4.20478 6.50761,5.25595 1.0277,0.40572 2.124139,0.60921 3.18621,0.91381 1.244738,0.0495 2.49083,0.2249 3.734216,0.14861 3.181556,-0.19523 6.206024,-1.05517 9.215683,-2.04655 6.884043,-2.2676 13.334918,-5.52173 19.525356,-9.27959 4.096506,-2.55425 6.419199,-3.77819 10.055164,-6.88247 3.85277,-3.28938 7.087295,-7.37336 9.203018,-11.99574 0.643813,-1.406592 1.033676,-2.916074 1.550513,-4.374108 0.705583,-3.295084 1.292381,-5.247243 1.348489,-8.639093 0.09108,-5.508326 -1.903165,-10.717051 -4.462215,-15.49347 C 82.493062,68.794428 82.32811,68.100548 79.2973,65.716221 78.191456,64.846257 77.027567,64.032018 75.777326,63.386554 71.9014,61.385518 67.506723,60.892496 63.241706,60.481617 c -1.530424,-0.09569 -3.058527,-0.241742 -4.591269,-0.287089 -2.850735,-0.08434 -5.493377,0.01439 -8.321762,0.328837 -1.212096,0.134753 -2.461967,0.151659 -3.619074,0.536935 -4.284631,1.426626 -5.119013,2.092746 -8.125577,3.989438 -0.500012,0.578628 -1.061479,1.109392 -1.500039,1.735881 -1.186294,1.694635 -1.77728,3.233785 -2.415693,5.211765 -1.257335,3.895577 -2.03394,7.940505 -2.371659,12.017369 -0.04892,3.272179 -0.233225,5.490639 0.327125,8.74363 0.950418,5.517475 3.646445,9.632877 7.578953,13.492157 1.047443,0.74818 2.016201,1.62104 3.142329,2.24453 1.868808,1.03468 4.767313,1.91516 6.910856,2.03575 4.428082,0.24911 8.166383,-2.41613 11.692027,-4.75282 0.78119,-0.67007 1.608357,-1.28998 2.343576,-2.01019 0.726831,-0.71199 1.378863,-1.49751 2.032876,-2.27692 2.358985,-2.811307 4.462118,-5.855462 6.296501,-9.030933 0.698013,-1.442567 1.149702,-2.183977 1.540235,-3.746791 0.714023,-2.857352 0.237146,-5.899986 -0.08764,-8.767606 -0.821378,-4.830845 -1.732275,-9.709949 -4.229941,-14.00352 -1.273353,-1.940788 -2.771545,-3.677272 -4.40935,-5.32238 0,0 -3.375896,2.063994 -3.375896,2.063994 z" />
  </g>
</svg>
